<?xml version="1.0" standalone="no"?>
<!DOCTYPE svg PUBLIC "-//W3C//DTD SVG 20010904//EN"
 "http://www.w3.org/TR/2001/REC-SVG-20010904/DTD/svg10.dtd">
<svg version="1.0" xmlns="http://www.w3.org/2000/svg"
 width="652.000000pt" height="652.000000pt" viewBox="0 0 652.000000 652.000000"
 preserveAspectRatio="xMidYMid meet">
<metadata>
Created by potrace 1.14, written by Peter Selinger 2001-2017
</metadata>
<g transform="translate(0.000000,652.000000) scale(0.100000,-0.100000)"
fill="#000000" stroke="none">
<path d="M1172 5862 c-42 -45 -101 -112 -97 -112 2 0 -11 -16 -28 -36 -27 -30
-32 -44 -33 -90 0 -30 2 -54 5 -54 3 0 6 -19 7 -43 1 -41 8 -107 19 -177 3
-19 7 -48 10 -65 2 -16 5 -31 6 -32 3 -5 22 -107 24 -128 0 -5 4 -16 9 -23 4
-7 9 -27 11 -45 6 -45 9 -60 18 -74 5 -7 6 -13 3 -13 -3 0 -1 -12 5 -27 6 -16
13 -37 15 -48 6 -32 45 -157 59 -190 7 -16 15 -39 17 -50 1 -11 6 -23 11 -26
4 -3 -17 -18 -48 -34 -30 -16 -55 -33 -55 -37 0 -4 -6 -8 -13 -8 -16 0 -191
-108 -195 -121 -2 -5 -8 -6 -14 -3 -5 3 -16 -3 -24 -15 -8 -12 -22 -21 -30
-21 -8 0 -14 -5 -14 -11 0 -5 -4 -8 -9 -5 -5 3 -11 0 -14 -8 -3 -8 -22 -22
-41 -31 -20 -10 -36 -21 -36 -26 0 -5 -5 -9 -10 -9 -11 0 -24 -9 -60 -42 -10
-9 -21 -14 -24 -11 -3 3 -8 -2 -12 -11 -3 -9 -12 -16 -18 -16 -7 0 -23 -11
-36 -25 -13 -14 -25 -23 -28 -21 -2 2 -11 -3 -21 -12 -37 -36 -81 -72 -88 -73
-15 -1 -16 -9 -2 -10 8 0 26 -2 42 -5 15 -2 39 -6 55 -8 15 -3 27 -5 27 -6 0
-1 7 -3 15 -5 35 -7 175 -48 189 -55 28 -15 75 -30 99 -32 6 -1 12 -5 12 -10
0 -5 4 -7 9 -3 5 3 12 1 16 -5 4 -6 10 -8 15 -5 5 3 17 1 27 -4 25 -13 155
-51 176 -51 9 0 17 -4 17 -8 0 -4 12 -9 26 -10 44 -3 47 -13 12 -35 -18 -12
-35 -21 -38 -22 -5 -1 -26 -12 -90 -48 -19 -11 -84 -45 -145 -75 -60 -31 -113
-61 -117 -67 -5 -6 -8 -6 -8 0 0 6 -6 3 -13 -5 -7 -8 -21 -16 -31 -18 -10 -2
-25 -10 -33 -18 -13 -13 -21 -16 -39 -13 -4 0 -10 -4 -13 -9 -3 -5 -44 -29
-91 -53 -47 -24 -87 -46 -90 -50 -3 -3 -16 -10 -30 -14 -13 -4 -30 -14 -38
-21 -7 -8 -17 -12 -22 -9 -4 3 -11 -2 -14 -11 -4 -9 -9 -14 -12 -11 -3 3 -32
-10 -64 -29 -32 -19 -61 -34 -65 -34 -4 0 -19 -9 -35 -20 -15 -11 -30 -17 -34
-13 -3 3 -6 1 -6 -5 0 -7 -7 -12 -15 -12 -8 0 -15 -5 -15 -10 0 -6 -3 -9 -8
-9 -25 4 -33 -1 -20 -15 8 -9 17 -11 24 -5 6 5 14 5 18 1 4 -4 24 -8 44 -8 20
-1 37 -3 37 -4 0 -1 20 -3 45 -4 25 -2 78 -7 117 -11 40 -4 90 -9 110 -10 21
-2 38 -4 38 -5 0 -2 19 -4 145 -14 41 -4 89 -8 105 -11 17 -2 47 -5 68 -7 20
-1 37 -7 37 -12 0 -7 3 -8 8 -1 8 11 52 16 52 6 0 -4 17 -7 38 -8 20 -1 57 -4
82 -7 25 -2 74 -7 110 -11 36 -3 74 -7 85 -9 11 -3 26 -5 33 -5 13 -1 -1 -18
-100 -122 -26 -27 -45 -49 -42 -49 3 0 -14 -19 -38 -43 -24 -23 -47 -50 -51
-60 -3 -9 -14 -17 -22 -17 -9 0 -13 -5 -10 -10 3 -6 -1 -13 -9 -16 -9 -3 -16
-13 -16 -22 0 -8 -3 -13 -6 -9 -6 5 -57 -48 -54 -55 1 -2 -21 -26 -49 -55 -28
-29 -51 -57 -51 -63 0 -6 -4 -8 -10 -5 -5 3 -10 1 -10 -4 0 -6 -18 -30 -40
-52 -22 -23 -40 -44 -40 -48 0 -3 -18 -23 -40 -43 -22 -21 -37 -38 -33 -38 3
0 -8 -14 -25 -30 -18 -16 -30 -30 -27 -30 3 0 -15 -20 -39 -45 -25 -25 -43
-45 -40 -45 3 0 -5 -11 -18 -24 -27 -29 -106 -117 -148 -166 -16 -19 -30 -39
-30 -43 0 -5 -4 -5 -10 -2 -5 3 -10 1 -10 -5 0 -6 -16 -28 -35 -48 -19 -20
-35 -43 -35 -50 0 -7 -3 -11 -7 -9 -5 3 -16 -6 -27 -20 l-18 -25 28 5 c16 3
58 12 94 20 36 9 79 19 95 23 17 4 35 8 40 10 6 1 21 5 35 8 14 3 45 10 70 17
25 6 54 12 65 14 11 2 31 6 45 10 14 3 36 8 50 11 14 2 32 7 40 10 16 6 50 14
85 18 11 2 27 6 35 9 13 5 204 49 270 63 14 3 33 7 42 10 9 3 25 7 35 9 10 2
38 8 62 14 25 5 49 8 53 5 4 -3 8 -1 8 4 0 8 35 17 110 27 14 2 27 4 30 5 3 1
8 2 13 1 4 0 7 3 7 8 0 6 9 9 19 8 11 0 17 -6 13 -11 -62 -101 -134 -214 -142
-224 -6 -6 -8 -12 -4 -12 4 0 0 -8 -9 -18 -10 -10 -14 -22 -10 -25 3 -4 2 -7
-4 -7 -6 0 -13 -9 -16 -19 -5 -20 -5 -20 58 -7 11 2 40 10 65 17 25 7 47 13
50 14 72 20 98 29 109 38 12 10 13 9 7 -2 -6 -8 0 -7 18 4 14 10 26 14 26 11
0 -4 13 0 30 9 16 8 41 16 55 17 14 1 25 6 25 10 0 4 9 8 19 8 11 0 22 4 26 9
3 6 14 8 25 6 11 -2 20 1 20 6 0 6 4 8 9 4 8 -4 9 -60 1 -60 -3 0 -10 -36 -15
-75 -2 -19 -5 -35 -6 -35 -1 0 -3 -9 -5 -20 -2 -11 -10 -47 -18 -79 -8 -33
-13 -63 -10 -68 3 -4 0 -8 -7 -8 -7 0 -10 -3 -7 -6 3 -3 0 -27 -7 -55 -7 -27
-10 -51 -5 -54 4 -2 23 3 41 12 19 10 40 18 48 19 8 2 18 8 22 16 4 7 11 9 15
6 4 -4 19 1 33 11 25 18 72 36 80 32 2 -2 7 1 10 6 5 7 57 35 71 38 3 0 15 6
28 13 12 7 22 10 22 6 0 -4 8 0 18 9 10 10 22 14 25 10 4 -3 7 0 7 7 0 7 2 11
6 8 3 -3 32 7 65 23 32 16 61 29 64 29 2 0 48 21 102 46 111 53 142 66 162 70
7 1 18 7 24 13 20 20 53 13 54 -11 0 -13 4 -43 7 -68 4 -25 9 -63 11 -85 2
-22 5 -40 5 -40 2 0 7 -37 11 -88 2 -21 6 -40 9 -42 3 -2 5 -24 5 -49 -1 -25
2 -46 5 -46 3 0 6 -12 6 -28 1 -28 12 -136 19 -187 8 -64 16 -132 20 -170 2
-22 7 -58 10 -80 6 -45 12 -99 20 -165 13 -109 25 -151 50 -177 14 -16 25 -23
25 -18 0 6 4 4 9 -4 5 -8 24 -15 42 -17 19 -2 52 -6 74 -10 67 -10 469 -5 495
6 3 1 8 2 13 1 4 -1 27 8 52 20 54 25 61 42 70 171 2 35 7 90 10 123 2 33 7
89 10 125 3 36 8 83 11 105 3 22 7 60 9 85 3 25 7 65 10 90 3 25 8 61 9 80 2
19 5 35 6 35 1 0 3 20 5 45 2 25 6 68 10 95 4 28 8 66 9 85 2 19 6 53 10 75 9
58 18 135 19 173 1 17 5 32 10 32 9 0 83 -32 139 -60 20 -10 39 -16 42 -13 3
4 6 1 6 -5 0 -7 6 -12 13 -12 6 0 30 -9 52 -20 83 -40 173 -80 184 -80 6 0 11
-5 11 -11 0 -5 5 -7 10 -4 6 3 10 1 10 -5 0 -7 7 -10 15 -6 8 3 15 1 15 -4 0
-4 17 -14 38 -21 20 -7 46 -18 58 -26 11 -7 24 -10 27 -6 4 3 7 1 7 -5 0 -7 4
-12 10 -12 5 0 35 -12 67 -27 32 -14 60 -27 63 -28 3 -1 23 -10 45 -20 22 -10
43 -18 47 -17 5 1 8 -3 8 -10 0 -6 3 -9 6 -5 3 3 21 -3 40 -14 46 -26 56 -24
50 9 -2 15 -5 27 -6 27 -3 0 -7 28 -14 90 -20 185 -24 282 -14 297 6 10 8 10
8 0 0 -7 4 -11 10 -7 5 3 17 2 27 -3 38 -20 69 -32 88 -35 11 -2 34 -10 50
-17 17 -7 37 -14 45 -15 8 -1 31 -10 51 -18 20 -9 39 -13 43 -10 3 4 6 0 6 -7
0 -7 3 -11 6 -7 4 3 23 -1 43 -9 20 -9 43 -17 51 -19 8 -2 28 -8 44 -14 33
-13 43 -9 24 10 -7 8 -20 28 -28 44 -8 17 -27 49 -42 71 -16 23 -28 45 -28 48
0 4 -18 34 -40 66 -22 32 -40 61 -40 64 0 2 15 2 33 -1 17 -3 42 -5 55 -6 12
-1 22 -5 22 -9 0 -4 3 -7 8 -7 4 1 9 0 12 -1 3 -1 14 -3 25 -4 11 -1 54 -10
95 -19 41 -9 84 -18 95 -20 11 -2 27 -7 35 -10 8 -3 30 -8 48 -11 17 -3 47 -9
65 -12 17 -3 39 -8 47 -11 8 -3 24 -7 36 -8 11 -2 40 -9 65 -15 24 -7 55 -14
69 -16 41 -5 59 -10 66 -16 3 -4 12 -4 20 -1 8 3 14 1 14 -3 0 -5 13 -10 29
-11 16 -1 67 -11 113 -22 46 -11 94 -22 108 -25 14 -2 36 -7 50 -10 14 -3 36
-8 50 -10 14 -3 39 -9 56 -14 28 -9 31 -8 27 9 -3 10 -9 16 -14 13 -5 -3 -9
-1 -9 5 0 9 -36 53 -92 113 -10 10 -16 18 -14 18 3 0 -8 12 -22 28 -15 15 -49
53 -77 86 -27 32 -68 78 -90 102 -22 24 -50 56 -62 71 -27 34 -64 76 -109 125
-19 20 -34 39 -34 42 0 2 -17 22 -37 45 -21 22 -59 64 -84 93 -65 74 -119 137
-154 177 -16 19 -40 45 -52 58 -12 13 -20 23 -18 23 2 0 -13 18 -35 40 -22 22
-37 40 -34 40 4 0 -8 14 -26 30 -18 17 -29 30 -25 30 3 0 0 7 -9 15 -8 8 -20
15 -27 15 -7 0 -9 3 -6 7 4 3 -3 17 -15 30 -12 13 -17 23 -12 24 5 1 29 3 54
5 64 5 135 11 210 19 36 4 81 9 100 10 19 1 35 3 35 4 0 1 25 4 55 6 30 2 80
6 110 10 30 3 80 7 110 10 30 2 75 7 100 9 25 3 71 8 103 11 32 2 62 7 67 10
6 4 10 1 10 -6 0 -8 4 -8 13 -2 6 6 19 10 27 10 64 1 209 18 217 27 5 5 -71
56 -83 56 -3 0 -19 9 -35 21 -16 11 -29 17 -29 12 0 -4 -4 -3 -8 2 -7 10 -23
19 -167 93 -38 20 -73 41 -77 47 -4 5 -8 6 -8 1 0 -5 -8 -3 -17 5 -31 25 -80
49 -87 42 -3 -3 -6 -2 -6 4 0 10 -49 38 -62 35 -5 -1 -8 1 -8 6 0 4 -15 13
-32 21 -18 8 -50 25 -70 38 -21 13 -38 21 -38 17 0 -3 -12 4 -26 15 -15 12
-33 21 -40 21 -8 0 -14 4 -14 8 0 8 -60 36 -72 33 -5 0 -8 4 -8 9 0 6 -6 10
-14 10 -7 0 -19 7 -26 15 -7 8 -16 12 -21 9 -5 -3 -9 0 -9 6 0 6 -4 8 -10 5
-5 -3 -10 -1 -10 5 0 6 -4 8 -10 5 -5 -3 -10 -3 -10 2 0 4 -25 19 -55 33 -30
14 -55 28 -55 33 0 4 -7 7 -15 7 -8 0 -15 7 -15 16 0 8 4 13 9 9 5 -3 12 -1
16 5 4 6 11 8 16 4 5 -3 16 0 24 6 8 7 15 10 15 7 0 -3 21 0 47 8 25 8 50 12
55 9 4 -3 8 -1 8 4 0 5 6 9 13 9 18 1 102 20 102 23 0 1 11 4 25 5 27 4 65 13
65 15 0 3 39 10 67 13 16 1 28 5 28 8 0 3 6 6 13 6 18 1 79 13 86 18 4 2 25 6
47 9 23 4 55 11 72 16 18 5 32 6 32 3 0 -3 7 1 17 8 9 8 18 13 20 12 1 -2 6
-3 9 -3 7 0 -23 30 -33 32 -4 1 -18 12 -30 24 -12 13 -36 31 -53 40 -16 10
-30 22 -30 26 0 4 -6 8 -13 8 -7 0 -23 9 -35 20 -12 12 -22 17 -22 13 0 -4 -5
0 -11 10 -5 9 -17 17 -24 17 -8 0 -15 5 -15 10 0 6 -7 10 -15 10 -8 0 -15 5
-15 10 0 6 -6 10 -13 10 -8 0 -27 11 -43 25 -16 14 -37 28 -46 31 -10 3 -18
10 -18 15 0 6 -4 7 -10 4 -5 -3 -10 -2 -10 3 0 5 -8 13 -17 16 -33 13 -63 31
-63 38 0 5 -5 8 -11 8 -6 0 -26 12 -45 26 -19 15 -34 24 -34 20 0 -3 -8 1 -17
9 -10 8 -22 15 -26 14 -5 0 -17 9 -27 21 -10 12 -21 21 -25 20 -11 -2 -105 60
-105 70 0 6 7 26 15 46 8 19 14 35 14 37 0 1 5 16 12 32 7 17 13 33 14 38 2 4
4 9 5 12 1 3 4 10 5 15 1 6 4 13 5 18 1 4 2 10 2 13 -1 3 5 30 13 59 8 29 12
57 9 61 -2 4 0 10 5 13 5 4 8 18 5 32 -3 14 -1 23 4 21 4 -3 8 2 8 11 0 9 4
44 8 77 12 89 17 152 20 227 1 38 6 71 9 75 4 3 2 12 -4 19 -7 8 -7 14 1 19 8
5 8 10 0 20 -8 10 -8 15 0 20 8 5 8 10 0 20 -8 9 -8 15 0 20 6 3 7 13 2 23 -9
21 -9 43 1 60 5 6 5 12 0 12 -4 0 -9 17 -9 37 -1 21 -7 39 -13 41 -6 2 -11 8
-11 13 0 5 -18 28 -40 50 -22 22 -40 43 -40 45 0 3 -17 21 -37 42 -41 41 -69
52 -53 22 6 -11 11 -30 12 -44 1 -15 5 -26 9 -26 11 0 -14 -80 -38 -126 -20
-38 -133 -162 -133 -146 0 4 -4 2 -8 -4 -11 -16 -182 -145 -182 -137 0 4 -7
-2 -15 -13 -8 -10 -15 -16 -15 -12 0 4 -12 -4 -26 -17 -15 -14 -30 -22 -35
-19 -5 3 -9 0 -9 -5 0 -20 -30 -11 -32 9 -4 43 -8 77 -14 110 -3 19 -7 45 -7
58 -1 12 -3 22 -6 22 -4 0 -6 12 -6 28 -1 15 -4 54 -9 87 -4 33 -8 66 -9 73
-1 18 -21 14 -37 -8 -8 -11 -19 -20 -25 -20 -5 0 -23 -11 -39 -25 -16 -13 -33
-22 -37 -19 -5 3 -9 1 -9 -5 0 -10 -282 -201 -297 -201 -5 0 -15 -9 -22 -19
-8 -11 -20 -17 -27 -14 -8 3 -17 -2 -20 -11 -3 -9 -12 -16 -20 -16 -8 0 -22
-8 -31 -17 -22 -22 -48 -23 -49 -3 0 8 -3 29 -7 45 -4 17 -8 45 -9 62 -2 29
-28 58 -28 32 0 -6 -4 -7 -10 -4 -5 3 -10 1 -10 -5 0 -6 -4 -9 -8 -6 -5 3 -18
-3 -29 -14 -12 -10 -24 -16 -27 -12 -4 3 -10 2 -14 -3 -11 -15 -89 -55 -107
-55 -9 0 -14 -4 -11 -8 3 -5 -1 -9 -9 -9 -12 0 -11 6 1 36 24 56 24 56 -46 54
-152 -5 -650 -8 -650 -3 0 3 -53 6 -118 7 -103 2 -300 10 -372 16 -21 2 -25
-2 -22 -23 2 -14 8 -29 13 -34 5 -6 9 -20 9 -32 l0 -22 -52 27 c-29 14 -54 29
-56 34 -2 4 -10 7 -18 7 -8 0 -26 7 -39 16 -14 9 -25 12 -25 8 0 -5 -4 -4 -8
2 -9 14 -54 29 -50 17 2 -4 -8 -36 -20 -71 -22 -59 -25 -63 -41 -48 -10 9 -22
16 -28 16 -6 0 -13 4 -15 8 -1 5 -43 36 -93 68 -49 32 -92 61 -95 64 -10 11
-96 65 -112 72 -10 4 -18 12 -18 18 0 5 -4 10 -9 10 -5 0 -42 22 -83 50 -40
27 -77 50 -83 50 -5 0 -10 -17 -11 -38 -2 -66 -9 -132 -14 -132 -3 0 -6 -12
-7 -27 -6 -97 -9 -123 -13 -123 -3 0 -6 -21 -7 -47 -2 -26 -7 -51 -13 -57 -7
-7 -10 -6 -10 2 0 7 -5 12 -12 12 -6 0 -34 17 -62 38 -28 21 -61 44 -73 50
-12 7 -28 18 -35 24 -26 25 -77 58 -88 58 -6 0 -8 5 -5 10 3 6 0 10 -7 10 -13
0 -56 32 -105 78 -13 12 -27 22 -31 22 -17 0 -83 81 -95 117 -15 42 -13 123 3
152 14 26 13 31 -5 31 -9 0 -28 -13 -43 -28z"/>
</g>
</svg>
